<svg width="30" height="30" viewBox="0 0 30 30" fill="none" xmlns="http://www.w3.org/2000/svg">
<g id="Frame" clip-path="url(#clip0_39_41)">
<g id="Group">
<path id="Vector" d="M28.125 3.01411e-07H9.375C9.12873 -0.000139369 8.88485 0.0482636 8.6573 0.142442C8.42976 0.23662 8.223 0.374726 8.04886 0.548864C7.87473 0.723001 7.73662 0.929755 7.64244 1.1573C7.54826 1.38485 7.49986 1.62873 7.5 1.875V7.5H1.875C1.62873 7.49986 1.38485 7.54826 1.1573 7.64244C0.929755 7.73662 0.723001 7.87473 0.548864 8.04886C0.374726 8.223 0.23662 8.42976 0.142442 8.6573C0.0482636 8.88485 -0.000139369 9.12873 3.01411e-07 9.375V24.375C0.00165458 25.8663 0.594818 27.2961 1.64935 28.3506C2.70389 29.4052 4.13367 29.9983 5.625 30H24.375C25.8663 29.9983 27.2961 29.4052 28.3506 28.3506C29.4052 27.2961 29.9983 25.8663 30 24.375V1.875C30.0001 1.62873 29.9517 1.38485 29.8576 1.1573C29.7634 0.929755 29.6253 0.723001 29.4511 0.548864C29.277 0.374726 29.0702 0.23662 28.8427 0.142442C28.6151 0.0482636 28.3713 -0.000139369 28.125 3.01411e-07ZM3.75 11.25H7.5V24.375C7.5 24.8723 7.30246 25.3492 6.95083 25.7008C6.5992 26.0525 6.12228 26.25 5.625 26.25C5.12772 26.25 4.65081 26.0525 4.29918 25.7008C3.94754 25.3492 3.75 24.8723 3.75 24.375V11.25ZM26.25 24.375C26.249 24.872 26.0512 25.3483 25.6998 25.6998C25.3483 26.0512 24.872 26.249 24.375 26.25H10.9046C11.1268 25.6495 11.2437 25.0152 11.25 24.375V3.75H26.25V24.375Z" fill="white"/>
<path id="Vector_2" d="M16.875 11.25H20.625C21.1223 11.25 21.5992 11.0525 21.9508 10.7008C22.3025 10.3492 22.5 9.87228 22.5 9.375C22.5 8.87772 22.3025 8.40081 21.9508 8.04917C21.5992 7.69754 21.1223 7.5 20.625 7.5H16.875C16.3777 7.5 15.9008 7.69754 15.5492 8.04917C15.1975 8.40081 15 8.87772 15 9.375C15 9.87228 15.1975 10.3492 15.5492 10.7008C15.9008 11.0525 16.3777 11.25 16.875 11.25Z" fill="white"/>
<path id="Vector_3" d="M20.625 15H16.875C16.3777 15 15.9008 15.1975 15.5492 15.5492C15.1975 15.9008 15 16.3777 15 16.875C15 17.3723 15.1975 17.8492 15.5492 18.2008C15.9008 18.5525 16.3777 18.75 16.875 18.75H20.625C21.1223 18.75 21.5992 18.5525 21.9508 18.2008C22.3025 17.8492 22.5 17.3723 22.5 16.875C22.5 16.3777 22.3025 15.9008 21.9508 15.5492C21.5992 15.1975 21.1223 15 20.625 15Z" fill="white"/>
</g>
</g>
<defs>
<clipPath id="clip0_39_41">
<rect width="30" height="30" fill="white"/>
</clipPath>
</defs>
</svg>
