<svg width="50" height="50" viewBox="0 0 50 50" fill="none" xmlns="http://www.w3.org/2000/svg">
<g clip-path="url(#clip0_25_36)">
<path d="M49.9219 37.7928L47.6514 47.6366C47.3324 49.0282 46.1094 50.0018 44.6768 50.0018C20.0391 49.9998 0 29.9608 0 5.32211C0 3.89047 0.973535 2.66586 2.36523 2.34848L12.209 0.0779674C13.6426 -0.254259 15.1074 0.489881 15.7031 1.8475L20.2461 12.4432C20.7771 13.6912 20.4189 15.1454 19.3691 16.0028L14.1113 20.2245C17.4297 26.9842 22.9258 32.4803 29.6875 35.8006L33.9922 30.5467C34.8406 29.494 36.3057 29.1297 37.5537 29.6703L48.1494 34.2122C49.4238 34.8827 50.2539 36.367 49.9219 37.7928Z" fill="#666666"/>
</g>
<defs>
<clipPath id="clip0_25_36">
<rect width="50" height="50" fill="white"/>
</clipPath>
</defs>
</svg>
