<svg width="145" height="144" viewBox="0 0 145 144" fill="none" xmlns="http://www.w3.org/2000/svg">
<g id="Layer_1" clip-path="url(#clip0_33_178)">
<g id="XMLID_2255_">
<g id="XMLID_499_">
<g id="XMLID_509_">
<g id="XMLID_510_">
<path id="XMLID_513_" d="M121.153 32.2147H104.804C99.5604 32.2147 95.3261 27.9242 95.3261 22.6523V6.16357" fill="black"/>
<g id="XMLID_511_">
<path id="XMLID_512_" d="M111.983 139.363H29.1749C23.0337 139.363 18.0422 134.372 18.0422 128.23V97.7206H21.9681V128.23C21.9681 132.212 25.1929 135.437 29.1749 135.437H111.983C115.965 135.437 119.19 132.212 119.19 128.23V31.9338L96.4198 8.12609H29.1749C25.1929 8.12609 21.9681 11.3509 21.9681 15.3329V46.9083H18.0422V15.3329C18.0422 9.19169 23.0337 4.2002 29.1749 4.2002H98.1023L123.116 30.3635V128.258C123.116 134.372 118.124 139.363 111.983 139.363Z" fill="black"/>
</g>
</g>
</g>
<g id="XMLID_505_">
<path id="XMLID_506_" d="M136.015 125.567H57.7778C54.1323 125.567 51.1879 122.594 51.1879 118.977V90.3179C51.1879 86.6724 54.1603 83.728 57.7778 83.728H136.015C139.661 83.728 142.605 86.7005 142.605 90.3179V118.977C142.605 122.594 139.633 125.567 136.015 125.567ZM57.7778 87.6539C56.2915 87.6539 55.1138 88.8597 55.1138 90.3179V118.977C55.1138 120.463 56.3196 121.641 57.7778 121.641H136.015C137.501 121.641 138.679 120.435 138.679 118.977V90.3179C138.679 88.8317 137.473 87.6539 136.015 87.6539H57.7778Z" fill="black"/>
</g>
<path id="XMLID_504_" d="M139.577 85.6909H121.153V121.921H139.577V85.6909Z" fill="black"/>
<g id="XMLID_500_">
<path id="XMLID_503_" d="M30.9695 49.6013V46.8531C30.9695 46.124 30.3807 45.5352 29.6516 45.5352H10.3586C9.6295 45.5352 9.04062 46.124 9.04062 46.8531V49.6013H30.9695Z" fill="black"/>
<path id="XMLID_502_" d="M30.9695 52.6016H9.04062V54.3121H30.9695V52.6016Z" fill="black"/>
<path id="XMLID_501_" d="M36.2975 78.4565H32.2875C31.5584 78.4565 30.9695 77.8676 30.9695 77.1385V59.7524H9.04062V77.1385C9.04062 77.8676 8.45173 78.4565 7.72264 78.4565H3.71262C2.64702 78.4565 2.03009 79.6343 2.64702 80.5036L18.9395 104.087C19.4723 104.844 20.5659 104.844 21.0987 104.087L37.3912 80.5036C37.9801 79.6343 37.3631 78.4565 36.2975 78.4565Z" fill="black"/>
</g>
</g>
<g id="XMLID_2808_">
<path id="XMLID_2815_" d="M75.6125 107.956L75.6406 108.04C75.6686 109.975 75.0517 111.518 73.7617 112.695C72.4718 113.873 70.7332 114.462 68.5459 114.462C66.3306 114.462 64.5359 113.705 63.1338 112.219C61.7597 110.732 61.0587 108.797 61.0587 106.47V102.853C61.0587 100.525 61.7317 98.6182 63.1058 97.1039C64.4798 95.5896 66.2465 94.8325 68.4337 94.8325C70.6771 94.8325 72.4438 95.3934 73.7337 96.5431C75.0236 97.6928 75.6406 99.2632 75.6125 101.254L75.5845 101.338H72.4999C72.4999 100.076 72.1633 99.0949 71.4623 98.4219C70.7612 97.7489 69.7517 97.4124 68.4337 97.4124C67.1438 97.4124 66.1063 97.9171 65.3491 98.9547C64.592 99.9923 64.2274 101.282 64.2274 102.853V106.498C64.2274 108.068 64.62 109.386 65.3772 110.396C66.1343 111.433 67.1999 111.938 68.5179 111.938C69.8078 111.938 70.8173 111.602 71.4903 110.929C72.1633 110.256 72.4999 109.274 72.4999 107.984H75.6125V107.956Z" fill="black"/>
<path id="XMLID_2812_" d="M79.5104 114.182V95.1138H85.8198C88.2314 95.1138 90.1944 95.8709 91.7367 97.3852C93.251 98.8994 94.0081 100.834 94.0081 103.218V106.106C94.0081 108.49 93.251 110.425 91.7367 111.939C90.2224 113.453 88.2595 114.182 85.8198 114.182H79.5104ZM82.7071 97.6656V111.659H85.8198C87.3621 111.659 88.5679 111.154 89.4653 110.116C90.3626 109.079 90.8113 107.761 90.8113 106.134V103.19C90.8113 101.591 90.3626 100.274 89.4653 99.236C88.5679 98.1984 87.3621 97.6936 85.8198 97.6936H82.7071V97.6656Z" fill="black"/>
<path id="XMLID_2809_" d="M101.495 106.275V114.182H98.2985V95.1138H104.86C106.992 95.1138 108.618 95.5905 109.796 96.5439C110.946 97.4973 111.534 98.8714 111.534 100.666C111.534 101.648 111.282 102.517 110.777 103.218C110.273 103.919 109.515 104.508 108.534 104.929C109.6 105.265 110.385 105.826 110.861 106.583C111.338 107.34 111.562 108.294 111.562 109.443V111.042C111.562 111.603 111.619 112.135 111.759 112.668C111.899 113.201 112.123 113.594 112.46 113.874V114.182H109.179C108.842 113.902 108.618 113.453 108.506 112.836C108.422 112.219 108.366 111.603 108.366 111.014V109.471C108.366 108.49 108.085 107.705 107.524 107.144C106.964 106.555 106.206 106.275 105.225 106.275H101.495ZM101.495 103.723H104.692C105.954 103.723 106.907 103.47 107.496 102.994C108.085 102.517 108.366 101.76 108.366 100.75C108.366 99.7968 108.085 99.0397 107.496 98.4788C106.907 97.946 106.038 97.6656 104.86 97.6656H101.467V103.723H101.495Z" fill="black"/>
</g>
</g>
</g>
<defs>
<clipPath id="clip0_33_178">
<rect width="143.576" height="143.576" fill="white" transform="translate(0.712139 -0.00537109)"/>
</clipPath>
</defs>
</svg>
