<svg width="145" height="144" viewBox="0 0 145 144" fill="none" xmlns="http://www.w3.org/2000/svg">
<g id="Layer_1" clip-path="url(#clip0_33_352)">
<g id="XMLID_2255_">
<g id="XMLID_499_">
<g id="XMLID_509_">
<g id="XMLID_510_">
<path id="XMLID_513_" d="M121.153 32.2147H104.804C99.5603 32.2147 95.3259 27.9242 95.3259 22.6523V6.16357" fill="#CCCCCC"/>
<g id="XMLID_511_">
<path id="XMLID_512_" d="M111.983 139.363H29.1747C23.0335 139.363 18.042 134.372 18.042 128.23V97.7206H21.9679V128.23C21.9679 132.212 25.1927 135.437 29.1747 135.437H111.983C115.965 135.437 119.19 132.212 119.19 128.23V31.9338L96.4196 8.12609H29.1747C25.1927 8.12609 21.9679 11.3509 21.9679 15.3329V46.9083H18.042V15.3329C18.042 9.19169 23.0335 4.2002 29.1747 4.2002H98.1022L123.116 30.3635V128.258C123.116 134.372 118.124 139.363 111.983 139.363Z" fill="#CCCCCC"/>
</g>
</g>
</g>
<g id="XMLID_505_">
<path id="XMLID_506_" d="M136.015 125.567H57.7776C54.1322 125.567 51.1877 122.594 51.1877 118.977V90.3179C51.1877 86.6724 54.1602 83.728 57.7776 83.728H136.015C139.661 83.728 142.605 86.7005 142.605 90.3179V118.977C142.605 122.594 139.633 125.567 136.015 125.567ZM57.7776 87.6539C56.2914 87.6539 55.1136 88.8597 55.1136 90.3179V118.977C55.1136 120.463 56.3194 121.641 57.7776 121.641H136.015C137.501 121.641 138.679 120.435 138.679 118.977V90.3179C138.679 88.8317 137.473 87.6539 136.015 87.6539H57.7776Z" fill="#CCCCCC"/>
</g>
<path id="XMLID_504_" d="M139.576 85.6909H121.153V121.921H139.576V85.6909Z" fill="#CCCCCC"/>
<g id="XMLID_500_">
<path id="XMLID_503_" d="M30.9693 49.6013V46.8531C30.9693 46.124 30.3804 45.5352 29.6513 45.5352H10.3584C9.62929 45.5352 9.04041 46.124 9.04041 46.8531V49.6013H30.9693Z" fill="#CCCCCC"/>
<path id="XMLID_502_" d="M30.9693 52.6016H9.04041V54.3121H30.9693V52.6016Z" fill="#CCCCCC"/>
<path id="XMLID_501_" d="M36.2974 78.4565H32.2873C31.5583 78.4565 30.9694 77.8676 30.9694 77.1385V59.7524H9.04045V77.1385C9.04045 77.8676 8.45157 78.4565 7.72248 78.4565H3.71246C2.64686 78.4565 2.02993 79.6343 2.64686 80.5036L18.9393 104.087C19.4721 104.844 20.5658 104.844 21.0986 104.087L37.391 80.5036C37.9799 79.6343 37.363 78.4565 36.2974 78.4565Z" fill="#CCCCCC"/>
</g>
</g>
<g id="XMLID_2808_">
<path id="XMLID_2815_" d="M75.6123 107.956L75.6404 108.04C75.6684 109.975 75.0515 111.518 73.7615 112.695C72.4716 113.873 70.733 114.462 68.5457 114.462C66.3304 114.462 64.5357 113.705 63.1336 112.219C61.7595 110.732 61.0585 108.797 61.0585 106.47V102.853C61.0585 100.525 61.7315 98.6182 63.1055 97.1039C64.4796 95.5896 66.2463 94.8325 68.4335 94.8325C70.6769 94.8325 72.4436 95.3934 73.7335 96.5431C75.0234 97.6928 75.6404 99.2632 75.6123 101.254L75.5843 101.338H72.4996C72.4996 100.076 72.1631 99.0949 71.4621 98.4219C70.761 97.7489 69.7515 97.4124 68.4335 97.4124C67.1436 97.4124 66.106 97.9171 65.3489 98.9547C64.5918 99.9923 64.2272 101.282 64.2272 102.853V106.498C64.2272 108.068 64.6198 109.386 65.377 110.396C66.1341 111.433 67.1997 111.938 68.5177 111.938C69.8076 111.938 70.8171 111.602 71.4901 110.929C72.1631 110.256 72.4996 109.274 72.4996 107.984H75.6123V107.956Z" fill="#CCCCCC"/>
<path id="XMLID_2812_" d="M79.5101 114.182V95.1138H85.8196C88.2312 95.1138 90.1942 95.8709 91.7365 97.3852C93.2508 98.8994 94.0079 100.834 94.0079 103.218V106.106C94.0079 108.49 93.2508 110.425 91.7365 111.939C90.2222 113.453 88.2593 114.182 85.8196 114.182H79.5101ZM82.7069 97.6656V111.659H85.8196C87.3619 111.659 88.5677 111.154 89.4651 110.116C90.3624 109.079 90.8111 107.761 90.8111 106.134V103.19C90.8111 101.591 90.3624 100.274 89.4651 99.236C88.5677 98.1984 87.3619 97.6936 85.8196 97.6936H82.7069V97.6656Z" fill="#CCCCCC"/>
<path id="XMLID_2809_" d="M101.495 106.275V114.182H98.2983V95.1138H104.86C106.991 95.1138 108.618 95.5905 109.796 96.5439C110.945 97.4973 111.534 98.8714 111.534 100.666C111.534 101.648 111.282 102.517 110.777 103.218C110.272 103.919 109.515 104.508 108.534 104.929C109.599 105.265 110.384 105.826 110.861 106.583C111.338 107.34 111.562 108.294 111.562 109.443V111.042C111.562 111.603 111.618 112.135 111.759 112.668C111.899 113.201 112.123 113.594 112.46 113.874V114.182H109.179C108.842 113.902 108.618 113.453 108.506 112.836C108.422 112.219 108.365 111.603 108.365 111.014V109.471C108.365 108.49 108.085 107.705 107.524 107.144C106.963 106.555 106.206 106.275 105.225 106.275H101.495ZM101.495 103.723H104.692C105.954 103.723 106.907 103.47 107.496 102.994C108.085 102.517 108.365 101.76 108.365 100.75C108.365 99.7968 108.085 99.0397 107.496 98.4788C106.907 97.946 106.038 97.6656 104.86 97.6656H101.467V103.723H101.495Z" fill="#CCCCCC"/>
</g>
</g>
</g>
<defs>
<clipPath id="clip0_33_352">
<rect width="143.576" height="143.576" fill="white" transform="translate(0.712036 -0.00537109)"/>
</clipPath>
</defs>
</svg>
