<svg width="50" height="50" viewBox="0 0 50 50" fill="none" xmlns="http://www.w3.org/2000/svg">
<g id="1564504_email_letter_mail_message_icon (1) 1" clip-path="url(#clip0_25_31)">
<g id="icons">
<path id="email" d="M41.6666 6.24994H8.3333C3.74997 6.24994 -3.05176e-05 9.99994 -3.05176e-05 14.5833V35.4166C-3.05176e-05 39.9999 3.74997 43.7499 8.3333 43.7499H41.6666C46.25 43.7499 50 39.9999 50 35.4166V14.5833C50 9.99994 46.25 6.24994 41.6666 6.24994ZM45 18.3333L28.5416 29.3749C27.5 29.9999 26.25 30.4166 25 30.4166C23.75 30.4166 22.5 29.9999 21.4583 29.3749L4.99997 18.3333C4.16664 17.7083 3.9583 16.4583 4.5833 15.4166C5.2083 14.5833 6.4583 14.3749 7.49997 14.9999L23.9583 26.0416C24.5833 26.4583 25.625 26.4583 26.25 26.0416L42.7083 14.9999C43.75 14.3749 45 14.5833 45.625 15.6249C46.0416 16.4583 45.8333 17.7083 45 18.3333Z" fill="black"/>
</g>
</g>
<defs>
<clipPath id="clip0_25_31">
<rect width="50" height="50" fill="white"/>
</clipPath>
</defs>
</svg>
