<svg width="145" height="145" viewBox="0 0 145 145" fill="none" xmlns="http://www.w3.org/2000/svg">
<g id="Frame">
<path id="Vector" d="M111.479 57.6046C106.993 56.0595 103.032 53.2812 100.053 49.5883C96.7687 45.4739 92.5871 42.1651 87.8279 39.9151C83.0686 37.6651 77.8577 36.5334 72.5939 36.6067C65.513 36.1053 58.503 38.2892 52.96 42.7237C47.4169 47.1581 43.7474 53.5177 42.6823 60.536C44.7802 57.0258 47.9375 54.2717 51.7 52.6699C55.4625 51.0682 59.6362 50.7014 63.6204 51.6223C68.0993 53.2125 72.053 56.0069 75.0466 59.6984C78.3486 63.78 82.5382 67.0546 87.2964 69.2731C92.0547 71.4915 97.2563 72.5954 102.505 72.5006C109.586 73.0021 116.596 70.8181 122.139 66.3836C127.682 61.9492 131.352 55.5896 132.417 48.5713C130.357 52.1235 127.21 54.9192 123.44 56.5458C119.67 58.1724 115.476 58.5436 111.479 57.6046ZM33.7088 87.3966C38.1953 88.9417 42.1554 91.72 45.1351 95.4129C48.4191 99.5273 52.6006 102.836 57.3599 105.086C62.1192 107.336 67.3301 108.468 72.5939 108.394C79.6748 108.896 86.6847 106.712 92.2278 102.278C97.7709 97.8431 101.44 91.4835 102.505 84.4652C100.408 87.9754 97.2503 90.7295 93.4877 92.3313C89.7252 93.933 85.5516 94.2998 81.5674 93.3789C77.0884 91.7887 73.1348 88.9943 70.1411 85.3028C66.8303 81.2313 62.639 77.9639 57.8828 75.7464C53.1266 73.5289 47.9294 72.4191 42.6823 72.5006C35.6014 71.9991 28.5915 74.1831 23.0484 78.6176C17.5053 83.052 13.8359 89.4116 12.7708 96.4299C14.8305 92.8777 17.9778 90.082 21.748 88.4554C25.5182 86.8288 29.7115 86.4576 33.7088 87.3966Z" fill="#CCCCCC"/>
</g>
</svg>
