<svg width="144" height="145" viewBox="0 0 144 145" fill="none" xmlns="http://www.w3.org/2000/svg">
<g id="Layer_1">
<g id="Group">
<path id="Vector" d="M133.957 74.6468C133.983 74.6496 134.012 74.6524 134.038 74.6524C134.238 74.6524 134.42 74.5068 134.458 74.3009C134.5 74.0689 134.346 73.846 134.114 73.8004C128.261 72.722 123.978 71.5297 109.528 71.65C110.429 68.3182 110.915 64.3777 111.012 59.7108C110.989 47.0569 104.933 42.5814 103.769 40.4799C105.485 30.8999 103.483 26.5388 102.553 25.0434C99.1218 23.8222 90.6146 28.1835 85.9675 31.2575C78.3894 29.0413 62.3751 29.2556 56.37 31.8294C45.2887 23.8938 39.4267 25.1089 39.4267 25.1089C39.4267 25.1089 35.6377 31.9009 38.426 41.838C34.78 46.4851 32.0632 49.7736 32.0632 58.4897C32.0632 63.3997 32.6407 67.7949 33.9447 71.6327C28.1452 71.6185 15.99 72.3989 10.2964 73.8059C10.0677 73.8632 9.92724 74.0976 9.98169 74.3265C10.0306 74.521 10.2076 74.6527 10.3993 74.6527C10.4335 74.6527 10.4678 74.6499 10.502 74.6412C16.2467 73.22 28.8083 72.4478 34.2532 72.4936C34.5647 73.3202 34.914 74.121 35.2997 74.896C21.302 75.2675 17.5278 77.2663 11.6514 78.7334C11.2254 78.8423 10.8078 78.945 10.4018 79.0453C10.1731 79.1025 10.0304 79.3369 10.0871 79.5656C10.136 79.7601 10.3103 79.8917 10.5048 79.8914C10.5389 79.8914 10.5732 79.8886 10.6074 79.88C11.0136 79.7772 11.431 79.6743 11.86 79.5659C17.754 78.0933 21.5788 76.0828 35.7454 75.7424C39.9094 83.3035 47.939 88.0071 61.4823 89.3083C59.5492 90.7754 57.2271 93.5608 56.907 96.7809C54.4765 98.3539 49.5894 98.8712 45.7886 97.6731C40.464 95.9918 38.4251 85.4485 30.4523 86.9495C28.7251 87.2757 29.0682 88.4133 30.5611 89.38C32.9918 90.9527 35.2797 92.92 37.0439 97.1095C38.3995 100.327 41.2476 106.074 50.2554 106.074C53.8301 106.074 56.3351 105.646 56.3351 105.646C56.3351 105.646 56.4037 113.855 56.4037 117.047C56.4037 120.727 51.4364 121.766 51.4364 123.535C51.4364 124.236 53.0808 124.302 54.402 124.302C57.0127 124.302 62.4462 122.123 62.4462 118.297C62.4462 115.257 62.4948 105.036 62.4948 103.249C62.4948 99.34 64.5908 98.1019 64.5908 98.1019C64.5908 98.1019 64.851 118.968 64.0903 121.765C63.198 125.054 61.588 124.588 61.588 126.055C61.588 128.237 68.1284 126.59 70.296 121.8C71.9718 118.071 71.2398 97.6011 71.2398 97.6011L73.027 97.5643C73.027 97.5643 73.1272 106.935 73.0672 111.219C73.0041 115.654 72.704 121.265 75.3375 123.91C77.0677 125.649 82.6785 128.7 82.6785 125.912C82.6785 124.29 79.6043 122.957 79.6043 118.571C79.6043 113.798 79.6043 99.723 79.6043 98.3878C82.0578 98.3878 81.6889 105.025 81.6889 105.025L81.8691 117.355C81.8691 117.355 81.3289 121.848 86.728 123.73C88.6326 124.396 92.7102 124.576 92.9019 123.458C93.0936 122.337 87.9918 120.67 87.946 117.19C87.9176 115.068 88.0406 113.83 88.0406 104.607C88.0406 95.3848 86.8023 91.9763 82.4871 89.2594C95.8043 87.8896 104.046 84.5953 108.064 75.7705C112.679 75.922 122.344 76.394 133.577 79.8284C133.616 79.8426 133.66 79.8485 133.703 79.8485C133.886 79.8485 134.054 79.7283 134.112 79.5452C134.18 79.3165 134.054 79.0762 133.825 79.0076C122.747 75.6191 113.377 75.0897 108.43 74.9241C108.742 74.1578 109.028 73.3542 109.282 72.5106C123.815 72.3761 128.109 73.5659 133.957 74.6468ZM33.0633 88.6758C32.5305 88.6758 32.0982 88.388 32.0982 88.0324C32.0982 87.6771 32.5305 87.3894 33.0633 87.3894C33.5962 87.3894 34.0285 87.6774 34.0285 88.0324C34.0285 88.3878 33.5964 88.6758 33.0633 88.6758ZM36.066 90.3084C35.5332 90.3084 35.1009 90.0201 35.1009 89.665C35.1009 89.3095 35.5332 89.0217 36.066 89.0217C36.5989 89.0217 37.0312 89.3095 37.0312 89.665C37.0312 90.0203 36.5991 90.3084 36.066 90.3084ZM36.9357 91.8454C36.9357 91.4901 37.368 91.2021 37.9008 91.2021C38.4336 91.2021 38.8659 91.4904 38.8659 91.8454C38.8659 92.201 38.4336 92.4888 37.9008 92.4888C37.368 92.4888 36.9357 92.201 36.9357 91.8454ZM39.5096 94.9554C38.9762 94.9554 38.5444 94.6673 38.5444 94.3118C38.5444 93.9565 38.9765 93.6684 39.5096 93.6684C40.0424 93.6684 40.4747 93.9567 40.4747 94.3118C40.4747 94.6673 40.0424 94.9554 39.5096 94.9554ZM41.3444 97.2786C40.8115 97.2786 40.3792 96.9912 40.3792 96.6356C40.3792 96.2803 40.8115 95.9923 41.3444 95.9923C41.8772 95.9923 42.3095 96.2806 42.3095 96.6356C42.3095 96.9909 41.8775 97.2786 41.3444 97.2786ZM43.8228 99.2568C43.2899 99.2568 42.8576 98.9686 42.8576 98.6135C42.8576 98.2579 43.2899 97.9699 43.8228 97.9699C44.3556 97.9699 44.7879 98.2579 44.7879 98.6135C44.7879 98.9686 44.3556 99.2568 43.8228 99.2568ZM47.2901 100.544C46.7573 100.544 46.325 100.256 46.325 99.9002C46.325 99.5449 46.7573 99.2568 47.2901 99.2568C47.823 99.2568 48.2553 99.5451 48.2553 99.9002C48.2553 100.256 47.8232 100.544 47.2901 100.544ZM50.7692 100.544C50.2364 100.544 49.8041 100.256 49.8041 99.9002C49.8041 99.5449 50.2364 99.2568 50.7692 99.2568C51.3021 99.2568 51.7344 99.5451 51.7344 99.9002C51.7344 100.256 51.3021 100.544 50.7692 100.544ZM54.2604 99.9954C53.7276 99.9954 53.2952 99.7071 53.2952 99.3521C53.2952 98.997 53.7276 98.7087 54.2604 98.7087C54.7937 98.7087 55.2255 98.997 55.2255 99.3521C55.2255 99.7071 54.7937 99.9954 54.2604 99.9954ZM81.5962 86.2985C78.7177 86.3939 75.7324 86.4425 72.7253 86.4425C69.6888 86.4425 66.7576 86.3934 64.0139 86.2954C49.3828 85.7825 41.3249 79.6072 41.3249 68.9091C41.3249 67.7981 41.5599 63.8927 44.587 60.2636C47.529 56.7365 52.0369 54.8715 57.6236 54.8715C58.0042 54.8715 58.6855 54.9132 60.068 54.9988C63.0303 55.1832 67.9889 55.4913 72.8984 55.4913C77.3442 55.4913 81.8406 55.1632 84.2567 54.9865C85.3874 54.9034 85.8412 54.8715 86.1335 54.8715C98.0185 54.8715 102.253 62.465 102.253 69.571C102.252 76.893 98.6686 85.739 81.5962 86.2985Z" fill="#CCCCCC"/>
<path id="Vector_2" d="M30.1562 95.5519C32.459 95.5519 30.1955 91.98 30.1562 90.3091C30.1456 91.9352 27.8534 95.5519 30.1562 95.5519Z" fill="#CCCCCC"/>
<path id="Vector_3" d="M75.0046 80.1802C74.7678 80.1802 74.5758 80.3722 74.5758 80.609C74.5758 81.5541 73.465 82.611 71.9784 82.611C71.7641 82.611 71.5579 82.5871 71.3604 82.5445C70.8671 82.4384 70.4312 82.2152 70.0744 81.9528C70.0029 81.9006 69.9348 81.8467 69.87 81.7917C69.6755 81.6266 69.5113 81.453 69.3822 81.2878C69.1664 81.0123 69.0477 80.7604 69.0477 80.609C69.0477 80.3722 68.8556 80.1802 68.6186 80.1802C68.3818 80.1802 68.1898 80.3722 68.1898 80.609C68.1898 80.7313 68.2149 80.8679 68.2628 81.013C68.3347 81.2306 68.4589 81.4678 68.6276 81.7061C68.7967 81.9442 69.011 82.1837 69.2635 82.406C69.516 82.6279 69.8069 82.833 70.13 83.0027C70.5337 83.2144 70.9869 83.3706 71.4769 83.4355C71.6403 83.457 71.8077 83.4685 71.9787 83.4685C72.8696 83.4685 73.6423 83.1803 74.2299 82.7427C74.3137 82.6801 74.3939 82.6147 74.4701 82.5464C74.6223 82.4101 74.7588 82.2628 74.8778 82.1083C75.1749 81.7226 75.3631 81.2908 75.4173 80.8643C75.4282 80.779 75.434 80.6939 75.434 80.6093C75.4337 80.3722 75.2416 80.1802 75.0046 80.1802Z" fill="#CCCCCC"/>
<path id="Vector_4" d="M70.7053 77.8846C70.8116 78.0416 70.9474 78.1774 71.1044 78.2837C71.1634 78.3232 71.2253 78.3592 71.2899 78.3904C71.419 78.4524 71.5588 78.4964 71.7057 78.519C71.7788 78.5301 71.854 78.536 71.9307 78.536C72.2364 78.536 72.521 78.443 72.7571 78.2837C72.8553 78.2174 72.9449 78.1395 73.0245 78.0519C73.1354 77.9301 73.2166 77.7845 73.282 77.6305C73.3574 77.453 73.4084 77.2631 73.4084 77.058C73.4084 76.2422 72.7467 75.5806 71.9307 75.5806C71.5227 75.5806 71.1532 75.7459 70.8858 76.0134C70.8742 76.025 70.8654 76.0395 70.8543 76.0514C70.7783 76.1327 70.7138 76.2234 70.6573 76.3203C70.5788 76.4558 70.5154 76.6017 70.483 76.7603C70.4635 76.8565 70.453 76.9559 70.453 77.058C70.453 77.16 70.4637 77.2595 70.483 77.356C70.5225 77.5485 70.5992 77.7273 70.7053 77.8846Z" fill="#CCCCCC"/>
<path id="Vector_5" d="M59.7647 62.3896C59.4623 62.0176 59.1354 61.688 58.7885 61.4071C58.4412 61.126 58.0738 60.8937 57.6904 60.7162C57.3067 60.5384 56.907 60.415 56.4952 60.353C56.2893 60.3218 56.0804 60.3057 55.8692 60.3057C52.4865 60.3057 49.7448 64.3919 49.7448 69.4328C49.7448 74.4735 52.4865 77.9878 55.8692 77.9878C56.0804 77.9878 56.2893 77.9741 56.4952 77.9473C56.907 77.8931 57.3067 77.7862 57.6904 77.6304C58.0738 77.4744 58.4412 77.2694 58.7885 77.0189C59.1354 76.7685 59.4623 76.4731 59.7647 76.1363C60.0671 75.7995 60.3451 75.4214 60.5948 75.0058C61.4688 73.5514 61.9934 71.6381 61.9934 69.4328C61.9934 67.2275 61.4685 65.2051 60.5948 63.6271C60.3451 63.1761 60.0671 62.7619 59.7647 62.3896Z" fill="#CCCCCC"/>
<path id="Vector_6" d="M88.9695 60.3052C85.5869 60.3052 82.8451 64.3914 82.8451 69.4323C82.8451 74.4731 85.5869 77.9873 88.9695 77.9873C92.352 77.9873 95.0937 74.4731 95.0937 69.4323C95.0937 64.3914 92.352 60.3052 88.9695 60.3052Z" fill="#CCCCCC"/>
</g>
</g>
</svg>
