<svg width="28" height="28" viewBox="0 0 28 28" fill="none" xmlns="http://www.w3.org/2000/svg">
<g id="394189_code_github_repository_icon 1">
<g id="Group">
<path id="Vector" d="M25.3413 14.312C25.346 14.3125 25.3513 14.313 25.356 14.313C25.3926 14.313 25.4261 14.2863 25.4329 14.2486C25.4407 14.2061 25.4125 14.1653 25.3701 14.1569C24.2976 13.9594 23.5131 13.7409 20.8659 13.763C21.0309 13.1526 21.12 12.4307 21.1378 11.5758C21.1336 9.25761 20.024 8.43772 19.8109 8.05273C20.1252 6.29772 19.7584 5.49878 19.5882 5.22482C18.9595 5.00111 17.401 5.80009 16.5497 6.36322C15.1614 5.95722 12.2277 5.99649 11.1275 6.468C9.0975 5.01422 8.0236 5.23683 8.0236 5.23683C8.0236 5.23683 7.32947 6.48109 7.84028 8.30153C7.17233 9.15287 6.67463 9.7553 6.67463 11.3521C6.67463 12.2516 6.78042 13.0567 7.01931 13.7598C5.95687 13.7572 3.73007 13.9002 2.68703 14.1579C2.64513 14.1684 2.6194 14.2114 2.62937 14.2533C2.63833 14.2889 2.67077 14.3131 2.70589 14.3131C2.71215 14.3131 2.71843 14.3125 2.72469 14.311C3.77711 14.0506 6.07835 13.9091 7.07583 13.9175C7.1329 14.069 7.19688 14.2157 7.26754 14.3576C4.70321 14.4257 4.0118 14.7919 2.93525 15.0606C2.85722 15.0806 2.78071 15.0994 2.70634 15.1178C2.66445 15.1283 2.63829 15.1712 2.64869 15.2131C2.65764 15.2487 2.68957 15.2728 2.7252 15.2728C2.73146 15.2728 2.73774 15.2723 2.744 15.2707C2.81842 15.2519 2.89489 15.233 2.97348 15.2132C4.05323 14.9434 4.75393 14.5751 7.3492 14.5127C8.11202 15.8979 9.58301 16.7595 12.0641 16.9979C11.71 17.2667 11.2846 17.777 11.2259 18.3669C10.7807 18.655 9.88537 18.7498 9.18907 18.5303C8.21363 18.2223 7.84011 16.2908 6.37951 16.5658C6.0631 16.6256 6.12595 16.834 6.39945 17.0111C6.84475 17.2992 7.26388 17.6596 7.58707 18.4271C7.83542 19.0165 8.35717 20.0694 10.0074 20.0694C10.6622 20.0694 11.1211 19.9909 11.1211 19.9909C11.1211 19.9909 11.1337 21.4949 11.1337 22.0795C11.1337 22.7537 10.2237 22.944 10.2237 23.2682C10.2237 23.3965 10.525 23.4086 10.767 23.4086C11.2453 23.4086 12.2407 23.0094 12.2407 22.3085C12.2407 21.7516 12.2496 19.8792 12.2496 19.5518C12.2496 18.8357 12.6336 18.6089 12.6336 18.6089C12.6336 18.6089 12.6812 22.4315 12.5419 22.9439C12.3784 23.5464 12.0835 23.461 12.0835 23.7298C12.0835 24.1295 13.2817 23.8277 13.6787 22.9502C13.9857 22.2671 13.8516 18.5171 13.8516 18.5171L14.179 18.5104C14.179 18.5104 14.1974 20.2271 14.1864 21.0118C14.1749 21.8243 14.1199 22.8522 14.6023 23.3369C14.9193 23.6554 15.9472 24.2144 15.9472 23.7036C15.9472 23.4065 15.384 23.1623 15.384 22.3587C15.384 21.4844 15.384 18.9059 15.384 18.6613C15.8335 18.6613 15.7659 19.8771 15.7659 19.8771L15.7989 22.136C15.7989 22.136 15.6999 22.9591 16.689 23.3038C17.0379 23.4259 17.7849 23.4588 17.8201 23.254C17.8552 23.0487 16.9206 22.7432 16.9122 22.1057C16.907 21.7169 16.9295 21.4901 16.9295 19.8006C16.9295 18.1111 16.7026 17.4867 15.9121 16.989C18.3518 16.738 19.8616 16.1345 20.5977 14.5179C21.4432 14.5456 23.2137 14.6321 25.2715 15.2612C25.2788 15.2638 25.2867 15.2649 25.2946 15.2649C25.3282 15.2649 25.3591 15.2429 25.3696 15.2094C25.3821 15.1675 25.359 15.1234 25.3171 15.1109C23.2876 14.4901 21.5711 14.3931 20.6648 14.3628C20.7219 14.2224 20.7743 14.0752 20.8209 13.9206C23.4833 13.896 24.2699 14.114 25.3413 14.312ZM6.85785 16.882C6.76023 16.882 6.68103 16.8293 6.68103 16.7642C6.68103 16.6991 6.76023 16.6464 6.85785 16.6464C6.95546 16.6464 7.03466 16.6991 7.03466 16.7642C7.03466 16.8293 6.95551 16.882 6.85785 16.882ZM7.40793 17.1811C7.31032 17.1811 7.23112 17.1283 7.23112 17.0633C7.23112 16.9981 7.31032 16.9454 7.40793 16.9454C7.50555 16.9454 7.58474 16.9981 7.58474 17.0633C7.58474 17.1284 7.50559 17.1811 7.40793 17.1811ZM7.56724 17.4627C7.56724 17.3976 7.64644 17.3449 7.74406 17.3449C7.84167 17.3449 7.92087 17.3977 7.92087 17.4627C7.92087 17.5279 7.84167 17.5806 7.74406 17.5806C7.64644 17.5806 7.56724 17.5279 7.56724 17.4627ZM8.03878 18.0325C7.94107 18.0325 7.86197 17.9797 7.86197 17.9145C7.86197 17.8494 7.94112 17.7967 8.03878 17.7967C8.13639 17.7967 8.21559 17.8495 8.21559 17.9145C8.21559 17.9797 8.13639 18.0325 8.03878 18.0325ZM8.3749 18.4581C8.27729 18.4581 8.19809 18.4054 8.19809 18.3403C8.19809 18.2752 8.27729 18.2224 8.3749 18.2224C8.47252 18.2224 8.55171 18.2752 8.55171 18.3403C8.55171 18.4054 8.47256 18.4581 8.3749 18.4581ZM8.82894 18.8205C8.73132 18.8205 8.65213 18.7676 8.65213 18.7026C8.65213 18.6375 8.73132 18.5847 8.82894 18.5847C8.92655 18.5847 9.00575 18.6375 9.00575 18.7026C9.00575 18.7676 8.92655 18.8205 8.82894 18.8205ZM9.46415 19.0562C9.36653 19.0562 9.28734 19.0035 9.28734 18.9383C9.28734 18.8732 9.36653 18.8205 9.46415 18.8205C9.56176 18.8205 9.64096 18.8733 9.64096 18.9383C9.64096 19.0035 9.56181 19.0562 9.46415 19.0562ZM10.1015 19.0562C10.0039 19.0562 9.9247 19.0035 9.9247 18.9383C9.9247 18.8732 10.0039 18.8205 10.1015 18.8205C10.1991 18.8205 10.2783 18.8733 10.2783 18.9383C10.2783 19.0035 10.1991 19.0562 10.1015 19.0562ZM10.7411 18.9558C10.6435 18.9558 10.5643 18.9029 10.5643 18.8379C10.5643 18.7729 10.6435 18.72 10.7411 18.72C10.8388 18.72 10.9179 18.7729 10.9179 18.8379C10.9179 18.9029 10.8388 18.9558 10.7411 18.9558ZM15.7489 16.4465C15.2216 16.464 14.6747 16.4729 14.1238 16.4729C13.5675 16.4729 13.0305 16.4639 12.5279 16.446C9.84752 16.352 8.37134 15.2207 8.37134 13.2609C8.37134 13.0573 8.41438 12.3419 8.96894 11.677C9.50791 11.0309 10.3337 10.6892 11.3572 10.6892C11.4269 10.6892 11.5517 10.6969 11.805 10.7126C12.3477 10.7463 13.2561 10.8028 14.1555 10.8028C14.9699 10.8028 15.7937 10.7427 16.2363 10.7103C16.4434 10.6951 16.5266 10.6892 16.5801 10.6892C18.7574 10.6892 19.5331 12.0803 19.5331 13.3821C19.533 14.7235 18.8765 16.344 15.7489 16.4465Z" fill="black"/>
<path id="Vector_2" d="M6.32523 18.1416C6.7471 18.1416 6.33242 17.4873 6.32523 17.1812C6.32328 17.4791 5.90336 18.1416 6.32523 18.1416Z" fill="black"/>
<path id="Vector_3" d="M14.5413 15.3258C14.4979 15.3258 14.4628 15.361 14.4628 15.4044C14.4628 15.5775 14.2593 15.7711 13.9869 15.7711C13.9477 15.7711 13.9099 15.7667 13.8737 15.7589C13.7833 15.7395 13.7035 15.6986 13.6381 15.6505C13.625 15.641 13.6126 15.6311 13.6007 15.621C13.5651 15.5908 13.535 15.559 13.5113 15.5287C13.4718 15.4782 13.45 15.4321 13.45 15.4044C13.45 15.361 13.4149 15.3258 13.3714 15.3258C13.328 15.3258 13.2929 15.361 13.2929 15.4044C13.2929 15.4268 13.2975 15.4518 13.3062 15.4784C13.3194 15.5182 13.3422 15.5617 13.3731 15.6054C13.4041 15.649 13.4433 15.6928 13.4896 15.7336C13.5358 15.7742 13.5891 15.8118 13.6483 15.8429C13.7223 15.8817 13.8053 15.9103 13.8951 15.9222C13.925 15.9261 13.9557 15.9282 13.987 15.9282C14.1502 15.9282 14.2918 15.8754 14.3994 15.7952C14.4148 15.7838 14.4294 15.7718 14.4434 15.7593C14.4713 15.7343 14.4963 15.7073 14.5181 15.679C14.5725 15.6084 14.607 15.5293 14.6169 15.4511C14.6189 15.4355 14.62 15.4199 14.62 15.4044C14.6199 15.361 14.5847 15.3258 14.5413 15.3258Z" fill="black"/>
<path id="Vector_4" d="M13.7537 14.9052C13.7732 14.934 13.7981 14.9589 13.8268 14.9784C13.8376 14.9856 13.849 14.9922 13.8608 14.9979C13.8845 15.0093 13.9101 15.0173 13.937 15.0215C13.9504 15.0235 13.9641 15.0246 13.9782 15.0246C14.0342 15.0246 14.0863 15.0075 14.1296 14.9784C14.1476 14.9662 14.164 14.9519 14.1786 14.9359C14.1989 14.9136 14.2138 14.8869 14.2257 14.8587C14.2396 14.8262 14.2489 14.7914 14.2489 14.7538C14.2489 14.6044 14.1277 14.4832 13.9782 14.4832C13.9035 14.4832 13.8358 14.5134 13.7868 14.5624C13.7846 14.5646 13.783 14.5672 13.781 14.5694C13.7671 14.5843 13.7553 14.6009 13.7449 14.6187C13.7305 14.6435 13.7189 14.6702 13.713 14.6993C13.7094 14.7169 13.7075 14.7351 13.7075 14.7538C13.7075 14.7725 13.7095 14.7907 13.713 14.8084C13.7202 14.8437 13.7343 14.8764 13.7537 14.9052Z" fill="black"/>
<path id="Vector_5" d="M11.7494 12.0667C11.694 11.9986 11.6342 11.9382 11.5706 11.8867C11.507 11.8352 11.4397 11.7927 11.3694 11.7601C11.2991 11.7276 11.2259 11.705 11.1505 11.6936C11.1128 11.6879 11.0745 11.6849 11.0358 11.6849C10.4161 11.6849 9.91382 12.4335 9.91382 13.357C9.91382 14.2804 10.4161 14.9242 11.0358 14.9242C11.0745 14.9242 11.1128 14.9217 11.1505 14.9168C11.2259 14.9069 11.2991 14.8873 11.3694 14.8588C11.4397 14.8302 11.507 14.7926 11.5706 14.7467C11.6342 14.7009 11.694 14.6468 11.7494 14.5851C11.8048 14.5234 11.8558 14.4541 11.9015 14.3779C12.0616 14.1115 12.1577 13.761 12.1577 13.357C12.1577 12.953 12.0616 12.5825 11.9015 12.2934C11.8558 12.2108 11.8048 12.1349 11.7494 12.0667Z" fill="black"/>
<path id="Vector_6" d="M17.0996 11.6848C16.4799 11.6848 15.9777 12.4334 15.9777 13.3569C15.9777 14.2803 16.4799 14.9241 17.0996 14.9241C17.7193 14.9241 18.2216 14.2803 18.2216 13.3569C18.2216 12.4334 17.7193 11.6848 17.0996 11.6848Z" fill="black"/>
</g>
</g>
</svg>
