<svg width="30" height="30" viewBox="0 0 30 30" fill="none" xmlns="http://www.w3.org/2000/svg">
<g id="Frame" clip-path="url(#clip0_39_26)">
<path id="Vector" d="M14.6026 8.68711L4.99999 17.5846V27.1875C4.99999 27.4361 5.08778 27.6746 5.24407 27.8504C5.40035 28.0262 5.61231 28.125 5.83332 28.125L11.6698 28.108C11.8901 28.1068 12.101 28.0075 12.2563 27.8318C12.4117 27.6561 12.4989 27.4183 12.4989 27.1705V21.5625C12.4989 21.3139 12.5867 21.0754 12.743 20.8996C12.8993 20.7238 13.1113 20.625 13.3323 20.625H16.6656C16.8866 20.625 17.0986 20.7238 17.2549 20.8996C17.4111 21.0754 17.4989 21.3139 17.4989 21.5625V27.1664C17.4986 27.2898 17.5199 27.412 17.5616 27.5261C17.6034 27.6402 17.6647 27.7438 17.7421 27.8312C17.8195 27.9186 17.9115 27.9879 18.0128 28.0352C18.114 28.0825 18.2226 28.1068 18.3323 28.1068L24.1667 28.125C24.3877 28.125 24.5996 28.0262 24.7559 27.8504C24.9122 27.6746 25 27.4361 25 27.1875V17.5781L15.3995 8.68711C15.2866 8.58476 15.146 8.52895 15.001 8.52895C14.8561 8.52895 14.7155 8.58476 14.6026 8.68711ZM29.7708 14.7346L25.4167 10.6969V2.58105C25.4167 2.39457 25.3508 2.21573 25.2336 2.08387C25.1164 1.95201 24.9574 1.87793 24.7917 1.87793H21.875C21.7092 1.87793 21.5503 1.95201 21.433 2.08387C21.3158 2.21573 21.25 2.39457 21.25 2.58105V6.83555L16.587 2.51953C16.1395 2.10526 15.578 1.87876 14.9984 1.87876C14.4189 1.87876 13.8574 2.10526 13.4099 2.51953L0.226029 14.7346C0.162741 14.7934 0.11038 14.8657 0.0719388 14.9473C0.0334971 15.029 0.00972777 15.1183 0.00198892 15.2103C-0.00574994 15.3022 0.00269335 15.395 0.0268363 15.4833C0.0509793 15.5716 0.0903489 15.6536 0.142695 15.7248L1.47082 17.5412C1.52302 17.6126 1.58724 17.6718 1.65978 17.7152C1.73232 17.7587 1.81177 17.7856 1.89358 17.7945C1.97538 17.8033 2.05794 17.794 2.13653 17.7669C2.21511 17.7398 2.28818 17.6956 2.35155 17.6367L14.6026 6.28477C14.7155 6.18242 14.8561 6.1266 15.001 6.1266C15.146 6.1266 15.2866 6.18242 15.3995 6.28477L27.651 17.6367C27.7143 17.6956 27.7872 17.7399 27.8657 17.7671C27.9442 17.7942 28.0267 17.8037 28.1084 17.795C28.1901 17.7863 28.2696 17.7596 28.3421 17.7163C28.4147 17.6731 28.4789 17.6142 28.5312 17.543L29.8594 15.7266C29.9117 15.655 29.9509 15.5725 29.9747 15.4838C29.9986 15.3951 30.0066 15.302 29.9984 15.2099C29.9902 15.1177 29.9658 15.0282 29.9268 14.9467C29.8877 14.8651 29.8347 14.793 29.7708 14.7346Z" fill="white"/>
</g>
<defs>
<clipPath id="clip0_39_26">
<rect width="30" height="30" fill="white"/>
</clipPath>
</defs>
</svg>
