<svg width="30" height="30" viewBox="0 0 30 30" fill="none" xmlns="http://www.w3.org/2000/svg">
<g id="Frame">
<path id="Vector" d="M15.8625 15.075C15.6328 15.2823 15.3344 15.397 15.025 15.397C14.7156 15.397 14.4172 15.2823 14.1875 15.075L3.58752 5.4375C4.00347 5.15257 4.49585 5.00007 5.00002 5H25C25.5042 5.00007 25.9966 5.15257 26.4125 5.4375L15.8625 15.075Z" fill="#666666"/>
<path id="Vector_2" d="M27.5 7.825V21.25C27.5 22.2446 27.1049 23.1984 26.4017 23.9017C25.6984 24.6049 24.7446 25 23.75 25H6.25C5.25544 25 4.30161 24.6049 3.59835 23.9017C2.89509 23.1984 2.5 22.2446 2.5 21.25V7.825L13.35 17.725C13.8076 18.1224 14.3939 18.3401 15 18.3375C15.6136 18.3362 16.2054 18.1093 16.6625 17.7L27.5 7.825Z" fill="#666666"/>
</g>
</svg>
