<svg width="127" height="144" viewBox="0 0 127 144" fill="none" xmlns="http://www.w3.org/2000/svg">
<g id="Frame" clip-path="url(#clip0_33_299)">
<path id="Vector" d="M112.589 9.40332H13.8809C6.4497 9.40332 0.420654 15.4324 0.420654 22.8635V121.572C0.420654 129.003 6.4497 135.032 13.8809 135.032H112.589C120.02 135.032 126.049 129.003 126.049 121.572V22.8635C126.049 15.4324 120.02 9.40332 112.589 9.40332ZM68.7873 107.382C68.7873 119.609 61.6085 125.189 51.1488 125.189C41.6986 125.189 36.2304 120.31 33.4262 114.393L43.0446 108.588C44.8954 111.869 46.5779 114.645 50.644 114.645C54.5139 114.645 56.9816 113.131 56.9816 107.214V67.0859H68.7873V107.382ZM96.7172 125.189C85.7527 125.189 78.6581 119.973 75.2089 113.131L84.8274 107.579C87.3511 111.701 90.6601 114.757 96.4648 114.757C101.344 114.757 104.485 112.318 104.485 108.925C104.485 104.887 101.288 103.456 95.8759 101.073L92.9315 99.811C84.4067 96.1936 78.7703 91.6227 78.7703 82.0043C78.7703 73.143 85.5284 66.4129 96.0442 66.4129C103.559 66.4129 108.944 69.0208 112.813 75.8631L103.616 81.7519C101.597 78.1345 99.4092 76.7043 96.0161 76.7043C92.567 76.7043 90.3797 78.8916 90.3797 81.7519C90.3797 85.2852 92.567 86.7154 97.6426 88.9307L100.587 90.1926C110.626 94.483 116.263 98.8856 116.263 108.756C116.263 119.356 107.906 125.189 96.7172 125.189Z" fill="#CCCCCC"/>
</g>
<defs>
<clipPath id="clip0_33_299">
<rect width="125.629" height="143.576" fill="white" transform="translate(0.420654 0.430664)"/>
</clipPath>
</defs>
</svg>
