<svg width="27" height="28" viewBox="0 0 27 28" fill="none" xmlns="http://www.w3.org/2000/svg">
<g id="Layer_1">
<g id="Group">
<path id="Vector" d="M8.7591 21.5902H5.47128V10.6309H8.7591V21.5902ZM20.8144 21.5902H17.5266V15.7357C17.5266 14.2102 16.983 13.4507 15.9057 13.4507C15.052 13.4507 14.5106 13.8759 14.2388 14.7275C14.2388 16.1106 14.2388 21.5902 14.2388 21.5902H10.951C10.951 21.5902 10.9948 11.7268 10.951 10.6309H13.5462L13.7467 12.8227H13.8147C14.4887 11.7268 15.566 10.9838 17.0433 10.9838C18.1666 10.9838 19.0752 11.2961 19.7689 12.0808C20.467 12.8666 20.8144 13.9209 20.8144 15.4015V21.5902Z" fill="black"/>
</g>
<g id="Group_2">
<path id="Vector_2" d="M7.11521 9.53501C8.05338 9.53501 8.81391 8.79901 8.81391 7.8911C8.81391 6.98319 8.05338 6.24719 7.11521 6.24719C6.17704 6.24719 5.4165 6.98319 5.4165 7.8911C5.4165 8.79901 6.17704 9.53501 7.11521 9.53501Z" fill="black"/>
</g>
</g>
</svg>
