<svg width="144" height="144" viewBox="0 0 144 144" fill="none" xmlns="http://www.w3.org/2000/svg">
<g id="Frame" clip-path="url(#clip0_33_305)">
<path id="Vector" d="M23.2655 94.1908L37.4137 3.18786C37.5161 2.51328 37.8287 1.8882 38.307 1.40161C38.7853 0.915014 39.4049 0.591705 40.0776 0.477707C40.7503 0.36371 41.4419 0.464834 42.0538 0.766684C42.6657 1.06853 43.1668 1.55572 43.4857 2.1589L58.6987 30.7005L23.2655 94.1908ZM123.738 116.272L110.266 32.5251C110.167 31.9381 109.909 31.3896 109.519 30.9395C109.13 30.4894 108.624 30.1551 108.057 29.973C107.49 29.7908 106.884 29.7679 106.305 29.9068C105.727 30.0457 105.197 30.3409 104.775 30.7603L19.8257 116.272L66.8287 142.761C68.2783 143.576 69.913 144.003 71.5757 144.003C73.2384 144.003 74.8731 143.576 76.3226 142.761L123.738 116.272ZM85.5414 43.1916L74.6536 22.3612C74.3789 21.8373 73.9661 21.3986 73.4599 21.0925C72.9538 20.7864 72.3736 20.6246 71.7821 20.6246C71.1906 20.6246 70.6103 20.7864 70.1042 21.0925C69.598 21.3986 69.1853 21.8373 68.9106 22.3612L21.1119 108.016L85.5414 43.1916Z" fill="#CCCCCC"/>
</g>
<defs>
<clipPath id="clip0_33_305">
<rect width="143.576" height="143.576" fill="white" transform="translate(-0.00561523 0.430664)"/>
</clipPath>
</defs>
</svg>
