<svg width="144" height="116" viewBox="0 0 144 116" fill="none" xmlns="http://www.w3.org/2000/svg">
<g id="Frame" clip-path="url(#clip0_33_220)">
<path id="Vector" d="M70.952 101.752C70.4809 101.752 70.0098 101.618 69.5836 101.393L65.2763 98.8358C64.6257 98.4769 64.9398 98.3423 65.1641 98.275C66.0166 97.9833 66.1961 97.916 67.1159 97.3776C67.2056 97.3327 67.3402 97.3552 67.4299 97.4L70.7501 99.3742C70.8623 99.4415 71.0417 99.4415 71.1539 99.3742L84.1206 91.8814C84.2327 91.8141 84.3225 91.6795 84.3225 91.5224V76.5592C84.3225 76.4021 84.2552 76.2675 84.1206 76.2002L71.1539 68.7298C71.0417 68.6625 70.8847 68.6625 70.7501 68.7298L57.7834 76.2002C57.6488 76.2675 57.5815 76.4246 57.5815 76.5592V91.5224C57.5815 91.657 57.6713 91.7916 57.7834 91.8589L61.328 93.9004C63.2573 94.865 64.4462 93.7209 64.4462 92.5992V77.8154C64.4462 77.6135 64.6033 77.4341 64.8276 77.4341H66.4653C66.6672 77.4341 66.8466 77.5911 66.8466 77.8154V92.5992C66.8466 95.1791 65.4558 96.6373 63.0105 96.6373C62.2702 96.6373 61.6645 96.6373 60.0268 95.8297L56.6169 93.878C55.7868 93.3844 55.2484 92.4871 55.2484 91.5224V76.5592C55.2484 75.5945 55.7644 74.6747 56.6169 74.2036L69.5836 66.7108C70.4136 66.2397 71.4904 66.2397 72.298 66.7108L85.2647 74.2036C86.0947 74.6972 86.6331 75.5945 86.6331 76.5592V91.5224C86.6331 92.4871 86.1172 93.4068 85.2647 93.878L72.298 101.371C71.9166 101.618 71.4455 101.752 70.952 101.752ZM81.4285 86.9908C81.4285 84.1866 79.5441 83.4463 75.5509 82.9079C71.5128 82.3695 71.109 82.1003 71.109 81.1581C71.109 80.3729 71.4455 79.3409 74.4292 79.3409C77.0988 79.3409 78.0859 79.9242 78.4897 81.7189C78.5346 81.8984 78.6692 82.0105 78.8487 82.0105H80.5312C80.6433 82.0105 80.7331 81.9657 80.8004 81.8984C80.8677 81.8086 80.9126 81.7189 80.8901 81.6067C80.6209 78.5109 78.5795 77.0751 74.4292 77.0751C70.7277 77.0751 68.5292 78.6455 68.5292 81.2478C68.5292 84.0969 70.7277 84.8596 74.2722 85.2186C78.5122 85.6448 78.8487 86.2505 78.8487 87.0806C78.8487 88.5387 77.6821 89.1444 74.9452 89.1444C71.5128 89.1444 70.7501 88.292 70.5033 86.587C70.4809 86.4075 70.3239 86.2729 70.122 86.2729H68.4394C68.2375 86.2729 68.0581 86.43 68.0581 86.6543C68.0581 88.8304 69.247 91.4327 74.9228 91.4327C79.073 91.4327 81.4285 89.8175 81.4285 86.9908ZM93.6549 75.7515C93.6549 77.12 92.5332 78.2417 91.1647 78.2417C89.7963 78.2417 88.6746 77.12 88.6746 75.7515C88.6746 74.3382 89.8412 73.2614 91.1647 73.2614C92.5108 73.239 93.6549 74.3382 93.6549 75.7515ZM93.2511 75.7515C93.2511 74.585 92.3089 73.6652 91.1423 73.6652C89.9982 73.6652 89.056 74.585 89.056 75.7515C89.056 76.9181 89.9982 77.8603 91.1423 77.8603C92.3089 77.8379 93.2511 76.8957 93.2511 75.7515ZM92.2416 77.1424H91.6583C91.6359 77.0078 91.5461 76.29 91.5461 76.2675C91.5013 76.1105 91.4564 76.0207 91.2545 76.0207H90.7609V77.1424H90.2225V74.3382H91.1872C91.5237 74.3382 92.1743 74.3382 92.1743 75.0785C92.1743 75.5945 91.8378 75.7067 91.6359 75.774C92.0172 75.7964 92.0397 76.0432 92.107 76.4021C92.1294 76.6265 92.1743 77.0078 92.2416 77.1424ZM91.6134 75.1683C91.6134 74.7869 91.3442 74.7869 91.2096 74.7869H90.7609V75.5721H91.1872C91.5461 75.5721 91.6134 75.3253 91.6134 75.1683ZM30.7957 43.2003C30.7957 42.5946 30.4817 42.0562 29.9657 41.7645L16.2138 33.8454C15.9895 33.7108 15.7203 33.6435 15.4511 33.6211H15.3165C15.0473 33.6211 14.8005 33.7108 14.5537 33.8454L0.824339 41.7645C0.308365 42.0562 -0.00570679 42.617 -0.00570679 43.2003L0.0167269 64.5123C0.0167269 64.8039 0.173763 65.0731 0.420533 65.2302C0.667303 65.3872 0.981375 65.3872 1.25058 65.2302L9.41644 60.5415C9.93241 60.2274 10.2465 59.689 10.2465 59.1058V49.1452C10.2465 48.5619 10.5606 48.0011 11.0765 47.7095L14.5537 45.7129C14.823 45.5558 15.0922 45.4885 15.3838 45.4885C15.6754 45.4885 15.9671 45.5558 16.2138 45.7129L19.6911 47.7095C20.207 48.0011 20.5211 48.5619 20.5211 49.1452V59.1058C20.5211 59.689 20.8352 60.2499 21.3512 60.5415L29.517 65.2302C29.7638 65.3872 30.1003 65.3872 30.3471 65.2302C30.5938 65.0956 30.7509 64.8039 30.7509 64.5123L30.7957 43.2003ZM105.993 19.9366V59.5096C105.993 60.0928 105.679 60.6537 105.163 60.9453L91.4115 68.8868C90.8955 69.1785 90.2674 69.1785 89.7514 68.8868L75.9996 60.9453C75.4836 60.6537 75.1695 60.0928 75.1695 59.5096V43.6265C75.1695 43.0432 75.4836 42.4824 75.9996 42.1908L89.7514 34.2493C90.2674 33.9576 90.8955 33.9576 91.4115 34.2493L94.8439 36.2234C95.2252 36.4477 95.7188 36.1561 95.7188 35.7299V14.6422C95.7188 14.0141 96.3918 13.6103 96.9526 13.9243L105.141 18.5008C105.657 18.77 105.993 19.3309 105.993 19.9366ZM95.6739 48.8536C95.6739 48.6965 95.5842 48.5619 95.472 48.4946L90.7609 45.7577C90.6263 45.6904 90.4693 45.6904 90.3347 45.7577L85.6236 48.4946C85.489 48.5619 85.4217 48.6965 85.4217 48.8536V54.305C85.4217 54.462 85.5115 54.5966 85.6236 54.6639L90.3347 57.3784C90.4693 57.4457 90.6263 57.4457 90.7385 57.3784L95.4496 54.6639C95.5842 54.5966 95.6515 54.462 95.6515 54.305V48.8536H95.6739ZM142.74 48.6965C143.256 48.4049 143.57 47.8441 143.57 47.2608V43.4246C143.57 42.8413 143.256 42.2805 142.74 41.9889L129.078 34.0473C128.562 33.7557 127.934 33.7557 127.418 34.0473L113.666 41.9889C113.15 42.2805 112.836 42.8413 112.836 43.4246V59.3077C112.836 59.9134 113.15 60.4518 113.666 60.7434L127.328 68.5279C127.821 68.8195 128.45 68.8195 128.965 68.5279L137.221 63.929C137.782 63.6149 137.782 62.8073 137.221 62.4932L123.38 54.5517C123.11 54.3947 122.953 54.1255 122.953 53.8338V48.8536C122.953 48.5619 123.11 48.2927 123.38 48.1357L127.687 45.6456C127.934 45.4885 128.27 45.4885 128.517 45.6456L132.824 48.1357C133.071 48.2927 133.25 48.5619 133.25 48.8536V52.757C133.25 53.3852 133.946 53.789 134.507 53.4749L142.74 48.6965ZM125.399 49.4817C125.309 49.549 125.241 49.6387 125.241 49.7509V52.8019C125.241 52.9141 125.309 53.0262 125.399 53.0711L128.046 54.5966C128.135 54.6639 128.27 54.6639 128.36 54.5966L131.007 53.0711C131.097 53.0038 131.164 52.9141 131.164 52.8019V49.7509C131.164 49.6387 131.097 49.5266 131.007 49.4817L128.36 47.9562C128.27 47.8889 128.135 47.8889 128.046 47.9562L125.399 49.4817ZM68.3721 59.2404V43.4471C68.3721 42.8638 68.0132 42.3029 67.4972 42.0113L53.7902 34.1146C53.3191 33.8454 52.6686 33.8006 52.1301 34.1146L38.4232 42.0113C37.9072 42.3029 37.5483 42.8413 37.5483 43.4471V59.2404C37.5483 59.8685 37.9745 60.4069 38.4456 60.6761L52.175 68.5728C52.7134 68.8868 53.3416 68.8644 53.8351 68.5728L67.5197 60.6761C67.9235 60.4518 68.2151 60.0704 68.3273 59.6217C68.3497 59.5096 68.3721 59.375 68.3721 59.2404ZM51.7039 31.2207L51.5244 31.3329H51.7712L51.7039 31.2207ZM68.7984 60.4293L68.7086 60.2723V60.4742L68.7984 60.4293Z" fill="black"/>
</g>
<defs>
<clipPath id="clip0_33_220">
<rect width="143.576" height="114.86" fill="white" transform="translate(-0.00570679 0.351562)"/>
</clipPath>
</defs>
</svg>
