<svg width="30" height="30" viewBox="0 0 30 30" fill="none" xmlns="http://www.w3.org/2000/svg">
<g id="8664997_briefcase_suitcase_icon">
<path id="Vector" d="M18.75 19.6875C18.75 20.2057 18.3307 20.625 17.8125 20.625H12.1875C11.6719 20.625 11.25 20.2031 11.25 19.6875V16.875H0V25.3125C0 26.8125 1.31309 28.125 2.8125 28.125H27.1875C28.6869 28.125 30 26.8119 30 25.3125V16.875H18.75V19.6875ZM27.1875 5.625H22.5V2.8125C22.5 1.31309 21.1875 0 19.6875 0H10.3125C8.8125 0 7.5 1.31309 7.5 2.8125V5.625H2.8125C1.31309 5.625 0 6.9375 0 8.4375V15H30V8.4375C30 6.9375 28.6875 5.625 27.1875 5.625ZM19.6875 5.625H10.3125V2.8125H19.6875V5.625Z" fill="#666666"/>
</g>
</svg>
