<svg width="145" height="145" viewBox="0 0 145 145" fill="none" xmlns="http://www.w3.org/2000/svg">
<g id="svg8">
<g id="g3092">
<path id="rect2995" d="M33.8364 10.2236V85.9373H9.29956V134.777H135.512V85.9373H110.976V34.2697L89.2429 10.2236H33.8364ZM90.5749 20.6109L100.647 31.7459H90.5749V20.6109ZM85.0716 52.6607C85.0716 56.0431 83.679 59.0839 81.4963 61.3654C87.8749 64.3486 92.6428 70.3391 93.7413 77.6766L94.1737 80.6443L88.2615 81.5323L87.8174 78.5762C86.6721 70.9258 80.1426 65.2913 72.406 65.2913C64.6715 65.2913 58.1423 70.9167 56.9945 78.5646L56.5505 81.5207L50.6383 80.6327L51.0706 77.6766C52.1704 70.3484 56.9353 64.3757 63.304 61.3888C61.1158 59.1063 59.7403 56.0478 59.7403 52.6607C59.7403 45.6989 65.4442 39.995 72.406 39.995C79.3677 39.995 85.0716 45.6989 85.0716 52.6607ZM15.2819 91.9196H129.53V128.807H15.2819V91.9196Z" fill="#CCCCCC"/>
<path id="path3032" d="M35.4475 97.6553C35.4475 102.787 35.4475 107.919 35.4475 113.051C40.0226 113.051 44.5977 113.051 49.1728 113.051C49.1728 114.404 49.1728 115.757 49.1728 117.11C44.5977 117.11 40.0226 117.11 35.4475 117.11C35.4475 119.105 35.4475 121.1 35.4475 123.095C42.0176 123.095 48.5877 123.095 55.1578 123.095C55.1578 117.752 55.1578 112.409 55.1578 107.066C50.5786 107.066 45.9995 107.066 41.4203 107.066C41.4203 105.924 41.4203 104.782 41.4203 103.64C45.9995 103.64 50.5786 103.64 55.1578 103.64C55.1578 101.645 55.1578 99.6503 55.1578 97.6553C48.5877 97.6553 42.0176 97.6553 35.4475 97.6553Z" fill="#CCCCCC"/>
<path id="path3058" d="M62.895 97.6333V122.883H82.8049V116.901H68.8773V113.243H77.8041V107.261H68.8773V103.604H82.8049V97.6333H62.895Z" fill="#CCCCCC"/>
<path id="rect3070" d="M88.447 97.8623C88.447 106.233 88.447 114.603 88.447 122.973C95.4234 122.973 102.4 122.973 109.376 122.973C109.376 114.603 109.376 106.233 109.376 97.8623C102.4 97.8623 95.4234 97.8623 88.447 97.8623ZM94.432 103.847C97.4184 103.847 100.405 103.847 103.391 103.847C103.391 108.228 103.391 112.608 103.391 116.988C100.405 116.988 97.4184 116.988 94.432 116.988C94.432 112.608 94.432 108.228 94.432 103.847Z" fill="#CCCCCC"/>
</g>
</g>
</svg>
