<svg width="145" height="145" viewBox="0 0 145 145" fill="none" xmlns="http://www.w3.org/2000/svg">
<g id="Frame">
<path id="Vector" d="M111.479 57.6046C106.993 56.0595 103.033 53.2812 100.053 49.5883C96.7688 45.4739 92.5872 42.1651 87.828 39.9151C83.0687 37.6651 77.8578 36.5334 72.594 36.6067C65.5131 36.1053 58.5032 38.2892 52.9601 42.7237C47.417 47.1581 43.7475 53.5177 42.6824 60.536C44.7803 57.0258 47.9376 54.2717 51.7001 52.6699C55.4626 51.0682 59.6363 50.7014 63.6205 51.6223C68.0994 53.2125 72.0531 56.0069 75.0467 59.6984C78.3487 63.78 82.5383 67.0546 87.2965 69.2731C92.0548 71.4915 97.2564 72.5954 102.506 72.5006C109.586 73.0021 116.596 70.8181 122.139 66.3836C127.683 61.9492 131.352 55.5896 132.417 48.5713C130.357 52.1235 127.21 54.9192 123.44 56.5458C119.67 58.1724 115.476 58.5436 111.479 57.6046ZM33.709 87.3966C38.1954 88.9417 42.1555 91.72 45.1352 95.4129C48.4192 99.5273 52.6007 102.836 57.36 105.086C62.1193 107.336 67.3302 108.468 72.594 108.394C79.6749 108.896 86.6848 106.712 92.2279 102.278C97.771 97.8431 101.44 91.4835 102.506 84.4652C100.408 87.9754 97.2504 90.7295 93.4879 92.3313C89.7253 93.933 85.5517 94.2998 81.5675 93.3789C77.0886 91.7887 73.1349 88.9943 70.1412 85.3028C66.8304 81.2313 62.6391 77.9639 57.8829 75.7464C53.1267 73.5289 47.9295 72.4191 42.6824 72.5006C35.6016 71.9991 28.5916 74.1831 23.0485 78.6176C17.5054 83.052 13.836 89.4116 12.7709 96.4299C14.8306 92.8777 17.9779 90.082 21.7481 88.4554C25.5183 86.8288 29.7116 86.4576 33.709 87.3966Z" fill="black"/>
</g>
</svg>
