<svg width="30" height="30" viewBox="0 0 30 30" fill="none" xmlns="http://www.w3.org/2000/svg">
<g id="Frame" clip-path="url(#clip0_12_255)">
<g id="43. Brightness">
<path id="Vector" d="M23.1912 20.72C23.2287 20.665 23.2737 20.6175 23.31 20.5625C23.3462 20.5075 23.37 20.4525 23.4037 20.3987C23.5894 20.1106 23.76 19.8132 23.915 19.5075C23.9862 19.365 24.0562 19.2225 24.1225 19.0775C24.2795 18.7309 24.4168 18.3758 24.5337 18.0137C24.5662 17.91 24.59 17.805 24.6187 17.7C24.7126 17.3664 24.7886 17.028 24.8462 16.6862C24.8675 16.5612 24.8875 16.4362 24.905 16.3112C24.9654 15.8767 24.9971 15.4387 25 15C25 14.67 24.9812 14.345 24.95 14.0225C24.9425 13.9425 24.9287 13.865 24.9187 13.7862C24.8887 13.5362 24.8537 13.2925 24.8062 13.05C24.7925 12.9812 24.775 12.9125 24.76 12.8437C24.7037 12.585 24.635 12.3312 24.5625 12.08L24.525 11.9612C24.0952 10.5936 23.3735 9.33557 22.4099 8.27416C21.4463 7.21276 20.2636 6.37327 18.9437 5.81372C18.8962 5.79247 18.8475 5.77497 18.8 5.75497C18.6 5.67164 18.3971 5.59706 18.1912 5.53122C18.0375 5.47997 17.8825 5.43247 17.7262 5.38747C17.6429 5.36497 17.5596 5.34372 17.4762 5.32372C16.9783 5.19298 16.4709 5.10103 15.9587 5.04872C15.6402 5.01605 15.3202 4.99978 15 4.99997C13.6347 4.99406 12.2827 5.26777 11.0272 5.80425C9.77178 6.34072 8.63947 7.1286 7.70009 8.11932C6.7607 9.11005 6.03413 10.2826 5.56515 11.5648C5.09617 12.847 4.89472 14.2117 4.9732 15.5747C5.05168 16.9377 5.40844 18.2703 6.02149 19.4902C6.63454 20.7101 7.4909 21.7915 8.53779 22.6679C9.58469 23.5442 10.7999 24.1969 12.1087 24.5858C13.4174 24.9746 14.7919 25.0913 16.1475 24.9287C16.2612 24.9162 16.3725 24.8937 16.485 24.8775C16.75 24.8375 17.0125 24.79 17.2712 24.73C17.3962 24.7 17.5212 24.6675 17.6462 24.6325C17.8887 24.565 18.1275 24.4891 18.3625 24.405C18.4875 24.36 18.6125 24.3187 18.73 24.27C18.98 24.1675 19.23 24.0525 19.47 23.9312C19.5625 23.885 19.6575 23.845 19.7487 23.7962C20.0534 23.63 20.3492 23.4481 20.635 23.2512C20.7687 23.16 20.895 23.0575 21.025 22.96C21.185 22.835 21.3437 22.71 21.4962 22.585C21.6487 22.46 21.7612 22.35 21.89 22.2275C22.0187 22.105 22.17 21.9487 22.305 21.8037C22.42 21.6787 22.5375 21.5537 22.6462 21.4287C22.8412 21.2 23.02 20.9625 23.1912 20.72ZM17.0862 7.83247C17.2312 7.87372 17.3837 7.89747 17.5237 7.94622L17.6312 7.98497C17.9875 8.11759 18.3331 8.27722 18.665 8.46247C18.7562 8.51372 18.8437 8.57122 18.9325 8.62622C19.179 8.77845 19.4161 8.94542 19.6425 9.12622C19.7825 9.23622 19.9162 9.35372 20.0475 9.47372C20.2092 9.62039 20.3633 9.77372 20.51 9.93372C20.6462 10.0812 20.7762 10.2325 20.9 10.3912C21.053 10.5864 21.1961 10.7891 21.3287 10.9987C21.4062 11.1237 21.4837 11.2412 21.5537 11.3675C21.7096 11.65 21.8469 11.9422 21.965 12.2425C22.005 12.3462 22.0425 12.45 22.0787 12.555C22.1979 12.8935 22.2923 13.2403 22.3612 13.5925C22.3737 13.6575 22.3812 13.725 22.3912 13.79C22.4599 14.1897 22.4963 14.5944 22.5 15C22.4971 15.327 22.4733 15.6535 22.4287 15.9775C22.4162 16.075 22.4012 16.1725 22.3837 16.27C22.3418 16.5168 22.2871 16.7613 22.22 17.0025C22.1937 17.1 22.1687 17.1975 22.1375 17.2937C22.0553 17.5491 21.9584 17.7995 21.8475 18.0437C21.795 18.1612 21.7387 18.275 21.6812 18.3875C21.6812 18.4012 21.6662 18.4137 21.66 18.4262C20.1002 17.9817 18.7279 17.0405 17.7516 15.7453C16.7752 14.4502 16.248 12.8719 16.25 11.25C16.2484 10.06 16.5353 8.88728 17.0862 7.83247ZM7.49999 15C7.502 13.1029 8.22285 11.277 9.51734 9.89023C10.8118 8.50342 12.5838 7.6587 14.4762 7.52622C13.9837 8.74533 13.7372 10.0499 13.7511 11.3647C13.765 12.6795 14.0389 13.9785 14.5572 15.1869C15.0754 16.3954 15.8277 17.4893 16.7706 18.4056C17.7135 19.322 18.8285 20.0427 20.0512 20.5262C19.995 20.5775 19.9412 20.63 19.8825 20.68C19.7575 20.7837 19.6325 20.8825 19.5075 20.9787C19.4162 21.0462 19.3275 21.1187 19.2337 21.1825C19.0168 21.3328 18.7919 21.4714 18.56 21.5975C18.5012 21.63 18.435 21.655 18.3787 21.685C18.1875 21.7812 17.9937 21.8725 17.795 21.9525C17.7087 21.9875 17.62 22.0175 17.5312 22.0487C17.3512 22.1137 17.1675 22.1737 16.9825 22.2237C16.89 22.2487 16.7975 22.2737 16.705 22.295C16.5087 22.3412 16.31 22.3775 16.11 22.4075C16.0262 22.42 15.9437 22.4362 15.86 22.445C15.5747 22.4802 15.2875 22.4986 15 22.5C13.0115 22.498 11.105 21.7072 9.69888 20.3011C8.29279 18.895 7.50197 16.9885 7.49999 15Z" fill="white"/>
<path id="Vector_2" d="M15.025 2.5C15.3565 2.5 15.6745 2.3683 15.9089 2.13388C16.1433 1.89946 16.275 1.58152 16.275 1.25C16.275 0.918479 16.1433 0.600537 15.9089 0.366117C15.6745 0.131696 15.3565 0 15.025 0L15.0125 0C14.681 0.0016576 14.3637 0.134943 14.1304 0.370536C13.8972 0.606129 13.7671 0.924729 13.7688 1.25625C13.7704 1.58777 13.9037 1.90505 14.1393 2.1383C14.3749 2.37155 14.6935 2.50166 15.025 2.5Z" fill="white"/>
<path id="Vector_3" d="M24.75 4.02747H24.7375C24.4049 4.02912 24.0865 4.16263 23.8521 4.39872C23.6178 4.6348 23.4867 4.95419 23.4875 5.28683C23.4883 5.61946 23.621 5.93819 23.8565 6.17311C24.092 6.40802 24.4111 6.53995 24.7437 6.53995C25.0764 6.53995 25.3954 6.40802 25.6309 6.17311C25.8664 5.93819 25.9992 5.61946 26 5.28683C26.0008 4.95419 25.8697 4.6348 25.6353 4.39872C25.401 4.16263 25.0826 4.02912 24.75 4.02747Z" fill="white"/>
<path id="Vector_4" d="M28.775 13.75H28.7625C28.4299 13.7517 28.1115 13.8852 27.8771 14.1213C27.6428 14.3573 27.5117 14.6767 27.5125 15.0094C27.5133 15.342 27.6461 15.6607 27.8816 15.8956C28.1171 16.1306 28.4361 16.2625 28.7688 16.2625C29.1014 16.2625 29.4205 16.1306 29.656 15.8956C29.8915 15.6607 30.0242 15.342 30.025 15.0094C30.0258 14.6767 29.8947 14.3573 29.6604 14.1213C29.426 13.8852 29.1076 13.7517 28.775 13.75Z" fill="white"/>
<path id="Vector_5" d="M24.75 23.4725H24.7375C24.4049 23.4742 24.0865 23.6077 23.8521 23.8438C23.6178 24.0799 23.4867 24.3993 23.4875 24.7319C23.4883 25.0645 23.621 25.3833 23.8565 25.6182C24.092 25.8531 24.4111 25.985 24.7437 25.985C25.0764 25.985 25.3954 25.8531 25.6309 25.6182C25.8664 25.3833 25.9992 25.0645 26 24.7319C26.0008 24.3993 25.8697 24.0799 25.6353 23.8438C25.401 23.6077 25.0826 23.4742 24.75 23.4725Z" fill="white"/>
<path id="Vector_6" d="M15.025 27.5H15.0125C14.6799 27.5017 14.3615 27.6352 14.1272 27.8713C13.8928 28.1073 13.7617 28.4267 13.7625 28.7594C13.7633 29.092 13.8961 29.4107 14.1316 29.6456C14.3671 29.8806 14.6861 30.0125 15.0188 30.0125C15.3514 30.0125 15.6705 29.8806 15.906 29.6456C16.1415 29.4107 16.2742 29.092 16.275 28.7594C16.2758 28.4267 16.1447 28.1073 15.9104 27.8713C15.676 27.6352 15.3576 27.5017 15.025 27.5Z" fill="white"/>
<path id="Vector_7" d="M5.30252 23.4725H5.28877C4.95586 23.4744 4.63726 23.6081 4.40282 23.8445C4.16838 24.0809 4.03724 24.4005 4.03815 24.7335C4.03906 25.0664 4.17195 25.3853 4.40768 25.6204C4.6434 25.8555 4.96273 25.9875 5.29565 25.9875C5.62856 25.9875 5.94789 25.8555 6.18362 25.6204C6.41935 25.3853 6.55223 25.0664 6.55314 24.7335C6.55405 24.4005 6.42291 24.0809 6.18847 23.8445C5.95403 23.6081 5.63543 23.4744 5.30252 23.4725Z" fill="white"/>
<path id="Vector_8" d="M1.27501 13.75H1.26251C0.929879 13.7517 0.611481 13.8852 0.377151 14.1213C0.14282 14.3573 0.0116886 14.6767 0.0125161 15.0094C0.0133436 15.342 0.146063 15.6607 0.381565 15.8956C0.617067 16.1306 0.936125 16.2625 1.26876 16.2625C1.6014 16.2625 1.92046 16.1306 2.15596 15.8956C2.39146 15.6607 2.52418 15.342 2.52501 15.0094C2.52584 14.6767 2.3947 14.3573 2.16037 14.1213C1.92604 13.8852 1.60764 13.7517 1.27501 13.75Z" fill="white"/>
<path id="Vector_9" d="M5.30249 6.52747C5.63401 6.52747 5.95195 6.39577 6.18637 6.16135C6.42079 5.92693 6.55249 5.60899 6.55249 5.27747C6.55249 4.94595 6.42079 4.628 6.18637 4.39358C5.95195 4.15916 5.63401 4.02747 5.30249 4.02747H5.28874C4.95722 4.02929 4.64 4.16273 4.40687 4.39844C4.17374 4.63415 4.04379 4.95282 4.04561 5.28434C4.04744 5.61586 4.18088 5.93308 4.41659 6.16621C4.6523 6.39934 4.97097 6.52929 5.30249 6.52747Z" fill="white"/>
</g>
</g>
<defs>
<clipPath id="clip0_12_255">
<rect width="30" height="30" fill="white"/>
</clipPath>
</defs>
</svg>
