<svg width="144" height="145" viewBox="0 0 144 145" fill="none" xmlns="http://www.w3.org/2000/svg">
<g id="Capa_1" clip-path="url(#clip0_33_339)">
<g id="Group">
<path id="Vector" d="M129.547 0.712891H14.0168C6.27569 0.712891 -0.0057373 6.99432 -0.0057373 14.7354V130.266C-0.0057373 138.007 6.27569 144.288 14.0168 144.288H129.547C137.288 144.288 143.57 138.007 143.57 130.266V14.7354C143.57 6.99432 137.288 0.712891 129.547 0.712891ZM83.28 80.3734H65.2733V131.666H51.0055V80.3734H33.0824V68.8514H83.28V80.3734ZM129.798 122.573C127.005 127.568 121.872 130.38 116.41 131.546C110.069 132.898 103.327 132.826 96.9676 131.636C93.8508 131.05 91.1528 130.176 88.8735 129.004V114.963C91.422 117.099 94.1858 118.702 97.171 119.767C100.156 120.838 103.171 121.37 106.21 121.37C108.902 121.37 111.899 121.035 114.221 119.552C115.812 118.535 116.877 116.931 116.877 115.011C116.877 112.397 114.986 110.423 112.946 109.047C109.961 107.037 106.533 105.726 103.225 104.35C98.3076 102.305 94.6464 99.8039 92.2296 96.8487C88.03 91.7099 87.342 83.5021 90.5844 77.6993C93.3542 72.7459 98.4572 69.8266 103.841 68.5284C109.71 67.1166 116.081 67.1166 122.033 68.0438C124.564 68.4387 126.897 69.0429 129.033 69.8624V82.9817C127.98 82.2518 126.831 81.6057 125.587 81.0554C123.134 79.9606 120.484 79.2188 117.822 78.8598C115.16 78.5009 112.354 78.4411 109.728 79.0573C107.658 79.5359 105.48 80.499 104.284 82.3475C103.787 83.1252 103.536 83.9927 103.536 84.9558C103.536 86.0087 103.811 86.9539 104.368 87.7855C105.774 89.8972 108.25 91.2552 110.47 92.35C114.37 94.2643 118.462 95.7001 122.207 97.9195C125.844 100.067 129.075 103.058 130.654 107.043C131.414 108.957 131.797 111.188 131.797 113.731C131.791 117.242 131.127 120.192 129.798 122.573Z" fill="#CCCCCC"/>
</g>
</g>
<defs>
<clipPath id="clip0_33_339">
<rect width="143.576" height="143.576" fill="white" transform="translate(-0.0057373 0.712891)"/>
</clipPath>
</defs>
</svg>
